<svg xmlns="http://www.w3.org/2000/svg" xmlns:xlink="http://www.w3.org/1999/xlink" viewBox="0,0,256,256" width="50px" height="50px" fill-rule="nonzero"><g fill="#f6f5f5" fill-rule="nonzero" stroke="none" stroke-width="1" stroke-linecap="butt" stroke-linejoin="miter" stroke-miterlimit="10" stroke-dasharray="" stroke-dashoffset="0" font-family="none" font-weight="none" font-size="none" text-anchor="none" style="mix-blend-mode: normal"><g transform="scale(5.12,5.12)"><path d="M28.8125,0.03125l-28,5.3125c-0.47266,0.08984 -0.8125,0.51953 -0.8125,1v37.3125c0,0.48047 0.33984,0.91016 0.8125,1l28,5.3125c0.0625,0.01172 0.125,0.03125 0.1875,0.03125c0.23047,0 0.44531,-0.07031 0.625,-0.21875c0.23047,-0.19141 0.375,-0.48437 0.375,-0.78125v-48c0,-0.29687 -0.14453,-0.58984 -0.375,-0.78125c-0.23047,-0.19141 -0.51953,-0.24219 -0.8125,-0.1875zM32,11v12.15625l1.75,1.4375l15.25,-9.09375v-3.5c0,-0.55078 -0.44531,-1 -1,-1zM14.84375,15.53125c2.37891,0 4.3125,0.85938 5.78125,2.5625c1.46875,1.70703 2.1875,3.92969 2.1875,6.71875c0,2.86719 -0.75781,5.17969 -2.28125,6.9375c-1.52344,1.75391 -3.48828,2.65625 -5.9375,2.65625c-2.38672,0 -4.33984,-0.86328 -5.84375,-2.5625c-1.50391,-1.69922 -2.25,-3.92578 -2.25,-6.65625c0,-2.88281 0.75391,-5.21875 2.28125,-7c1.52734,-1.78125 3.54297,-2.65625 6.0625,-2.65625zM49,17.84375l-14.8125,8.84375c-0.16016,0.09375 -0.35547,0.125 -0.53125,0.125c-0.22656,0 -0.44141,-0.06641 -0.625,-0.21875l-1.03125,-0.84375v12.25h2.0625c-0.04297,0.32813 -0.0625,0.66016 -0.0625,1c0,4.41016 3.58984,8 8,8c4.41016,0 8,-3.58984 8,-8c0,-1.41406 -0.38281,-2.75 -1.03125,-3.90625c0.00391,-0.03516 0.03125,-0.05859 0.03125,-0.09375zM14.75,19.0625c-1.31641,0 -2.38281,0.54297 -3.15625,1.625c-0.77734,1.08203 -1.15625,2.5 -1.15625,4.28125c0,1.80469 0.38281,3.25781 1.15625,4.3125c0.77734,1.05078 1.80469,1.5625 3.0625,1.5625c1.29297,0 2.30078,-0.51172 3.0625,-1.53125c0.75781,-1.01953 1.15625,-2.43359 1.15625,-4.25c0,-1.89062 -0.35547,-3.35547 -1.09375,-4.40625c-0.73828,-1.05469 -1.75391,-1.59375 -3.03125,-1.59375zM42,33c3.30859,0 6,2.69141 6,6c0,3.30859 -2.69141,6 -6,6c-3.30859,0 -6,-2.69141 -6,-6c0,-3.30859 2.69141,-6 6,-6zM41,34v7h5v-2h-3v-5z"></path></g></g></svg>